<svg width="256" height="256" fill="none" xmlns="http://www.w3.org/2000/svg"><path fill="#E5E5E5" d="M0 0h256v256H0z"/><path fill="url('#paint0_linear_0_1')" d="M0 0h256v256H0z"/><g filter="url('#filter0_di_0_1')"><path d="M90.207 89.182c-.44-.147-.952-.586-1.538-1.319a13.563 13.563 0 0 1-1.538-2.417 20.133 20.133 0 0 1-1.099-2.636c-.293-.88-.366-1.538-.22-1.978.147-.586.586-1.318 1.319-2.197a39.493 39.493 0 0 1 2.417-2.637 22.386 22.386 0 0 1 2.637-2.637c.879-.732 1.61-1.098 2.197-1.098 1.758-.44 4.468-1.099 8.13-1.978a732.935 732.935 0 0 1 12.744-3.296 746.896 746.896 0 0 1 14.722-3.515c5.273-1.172 10.253-2.27 14.941-3.296 4.834-1.172 9.082-2.197 12.744-3.076 3.809-.88 6.592-1.465 8.35-1.758.732-.147 1.904-.293 3.515-.44 1.758-.146 3.589-.293 5.493-.44 1.905-.146 3.663-.292 5.274-.439 1.758-.146 2.93-.22 3.516-.22 0 2.784-.367 4.835-1.099 6.153-.586 1.172-1.538 1.977-2.857 2.417-1.171.44-2.563.66-4.174.66-1.612 0-3.443.219-5.493.658-1.465.44-3.882 1.099-7.251 1.978a505.76 505.76 0 0 0-11.207 3.076l-13.183 3.296a820.821 820.821 0 0 0-13.184 3.516 687.522 687.522 0 0 0-11.206 3.296l-7.251 1.977c-2.197 2.49-3.442 4.76-3.735 6.812-.293 2.05-.44 4.467-.44 7.25 0 6.299.367 12.305 1.099 18.018a1206.45 1206.45 0 0 0 3.076 18.457c.293 0 .659.073 1.099.22h1.318c3.955 0 7.764-.44 11.426-1.318a251.865 251.865 0 0 0 11.206-3.296 165.02 165.02 0 0 1 11.426-3.077 47.976 47.976 0 0 1 12.085-1.538c.586 0 1.538.074 2.856.22 1.465 0 2.857.22 4.175.659 1.318.293 2.344.733 3.076 1.319.733.586.879 1.391.44 2.417l-56.69 17.138v60.205c-2.636 0-4.687-.366-6.152-1.098-1.465-.586-2.49-1.465-3.076-2.637-.586-1.318-.952-2.783-1.099-4.395a361.67 361.67 0 0 1-.44-5.932c-.292-2.49-.659-6.372-1.098-11.646-.44-5.273-.952-11.206-1.538-17.798a1438.59 1438.59 0 0 0-1.538-21.093 2375.857 2375.857 0 0 0-1.758-20.874 5107.276 5107.276 0 0 1-1.538-18.018c-.44-5.273-.733-9.155-.879-11.645Z" fill="#fff"/></g><defs><linearGradient id="paint0_linear_0_1" x1="0" y1="0" x2="256" y2="256" gradientUnits="userSpaceOnUse"><stop stop-color="#4883B5"/><stop offset="1" stop-color="#352570"/></linearGradient><filter id="filter0_di_0_1" x="83.593" y="53.806" width="106.218" height="159.513" filterUnits="userSpaceOnUse" color-interpolation-filters="sRGB"><feFlood flood-opacity="0" result="BackgroundImageFix"/><feColorMatrix in="SourceAlpha" values="0 0 0 0 0 0 0 0 0 0 0 0 0 0 0 0 0 0 127 0" result="hardAlpha"/><feOffset dx="2" dy="5"/><feGaussianBlur stdDeviation="2"/><feComposite in2="hardAlpha" operator="out"/><feColorMatrix values="0 0 0 0 0 0 0 0 0 0 0 0 0 0 0 0 0 0 0.45 0"/><feBlend in2="BackgroundImageFix" result="effect1_dropShadow_0_1"/><feBlend in="SourceGraphic" in2="effect1_dropShadow_0_1" result="shape"/><feColorMatrix in="SourceAlpha" values="0 0 0 0 0 0 0 0 0 0 0 0 0 0 0 0 0 0 127 0" result="hardAlpha"/><feOffset dy="4"/><feGaussianBlur stdDeviation="3"/><feComposite in2="hardAlpha" operator="arithmetic" k2="-1" k3="1"/><feColorMatrix values="0 0 0 0 0 0 0 0 0 0 0 0 0 0 0 0 0 0 0.35 0"/><feBlend in2="shape" result="effect2_innerShadow_0_1"/></filter></defs></svg>