<svg width="256" height="256" viewBox="0 0 256 256" fill="none" xmlns="http://www.w3.org/2000/svg">
<rect width="256" height="256" fill="#E5E5E5"/>
<rect width="256" height="256" fill="url(#paint0_linear_0_1)"/>
<g filter="url(#filter0_di_0_1)">
<path d="M90.207 89.1816C89.7676 89.0352 89.2549 88.5957 88.6689 87.8633C88.083 87.1309 87.5703 86.3252 87.1309 85.4463C86.6914 84.5674 86.3252 83.6885 86.0322 82.8096C85.7393 81.9307 85.666 81.2715 85.8125 80.832C85.959 80.2461 86.3984 79.5137 87.1309 78.6348C87.8633 77.7559 88.6689 76.877 89.5479 75.998C90.4268 74.9727 91.3057 74.0938 92.1846 73.3613C93.0635 72.6289 93.7959 72.2627 94.3818 72.2627C96.1396 71.8232 98.8496 71.1641 102.512 70.2852C106.32 69.2598 110.568 68.1611 115.256 66.9893C119.943 65.8174 124.851 64.6455 129.978 63.4736C135.251 62.3018 140.231 61.2031 144.919 60.1777C149.753 59.0059 154.001 57.9805 157.663 57.1016C161.472 56.2227 164.255 55.6367 166.013 55.3438C166.745 55.1973 167.917 55.0508 169.528 54.9043C171.286 54.7578 173.117 54.6113 175.021 54.4648C176.926 54.3184 178.684 54.1719 180.295 54.0254C182.053 53.8789 183.225 53.8057 183.811 53.8057C183.811 56.5889 183.444 58.6396 182.712 59.958C182.126 61.1299 181.174 61.9355 179.855 62.375C178.684 62.8145 177.292 63.0342 175.681 63.0342C174.069 63.0342 172.238 63.2539 170.188 63.6934C168.723 64.1328 166.306 64.792 162.937 65.6709C159.567 66.5498 155.832 67.5752 151.73 68.7471C147.629 69.7725 143.234 70.8711 138.547 72.043C134.006 73.2148 129.611 74.3867 125.363 75.5586C121.262 76.7305 117.526 77.8291 114.157 78.8545C110.935 79.7334 108.518 80.3926 106.906 80.832C104.709 83.3223 103.464 85.5928 103.171 87.6436C102.878 89.6943 102.731 92.1113 102.731 94.8945C102.731 101.193 103.098 107.199 103.83 112.912C104.709 118.479 105.734 124.631 106.906 131.369C107.199 131.369 107.565 131.442 108.005 131.589C108.591 131.589 109.03 131.589 109.323 131.589C113.278 131.589 117.087 131.149 120.749 130.271C124.558 129.245 128.293 128.146 131.955 126.975C135.764 125.803 139.572 124.777 143.381 123.898C147.336 122.873 151.364 122.36 155.466 122.36C156.052 122.36 157.004 122.434 158.322 122.58C159.787 122.58 161.179 122.8 162.497 123.239C163.815 123.532 164.841 123.972 165.573 124.558C166.306 125.144 166.452 125.949 166.013 126.975L109.323 144.113V204.318C106.687 204.318 104.636 203.952 103.171 203.22C101.706 202.634 100.681 201.755 100.095 200.583C99.5088 199.265 99.1426 197.8 98.9961 196.188C98.8496 194.431 98.7031 192.453 98.5566 190.256C98.2637 187.766 97.8975 183.884 97.458 178.61C97.0186 173.337 96.5059 167.404 95.9199 160.812C95.4805 154.074 94.9678 147.043 94.3818 139.719C93.7959 132.395 93.21 125.437 92.624 118.845C92.0381 112.106 91.5254 106.101 91.0859 100.827C90.6465 95.5537 90.3535 91.6719 90.207 89.1816Z" fill="white"/>
</g>
<defs>
<filter id="filter0_di_0_1" x="83.5928" y="53.8057" width="106.218" height="159.513" filterUnits="userSpaceOnUse" color-interpolation-filters="sRGB">
<feFlood flood-opacity="0" result="BackgroundImageFix"/>
<feColorMatrix in="SourceAlpha" type="matrix" values="0 0 0 0 0 0 0 0 0 0 0 0 0 0 0 0 0 0 127 0" result="hardAlpha"/>
<feOffset dx="2" dy="5"/>
<feGaussianBlur stdDeviation="2"/>
<feComposite in2="hardAlpha" operator="out"/>
<feColorMatrix type="matrix" values="0 0 0 0 0 0 0 0 0 0 0 0 0 0 0 0 0 0 0.45 0"/>
<feBlend mode="normal" in2="BackgroundImageFix" result="effect1_dropShadow_0_1"/>
<feBlend mode="normal" in="SourceGraphic" in2="effect1_dropShadow_0_1" result="shape"/>
<feColorMatrix in="SourceAlpha" type="matrix" values="0 0 0 0 0 0 0 0 0 0 0 0 0 0 0 0 0 0 127 0" result="hardAlpha"/>
<feOffset dy="4"/>
<feGaussianBlur stdDeviation="3"/>
<feComposite in2="hardAlpha" operator="arithmetic" k2="-1" k3="1"/>
<feColorMatrix type="matrix" values="0 0 0 0 0 0 0 0 0 0 0 0 0 0 0 0 0 0 0.35 0"/>
<feBlend mode="normal" in2="shape" result="effect2_innerShadow_0_1"/>
</filter>
<linearGradient id="paint0_linear_0_1" x1="0" y1="0" x2="256" y2="256" gradientUnits="userSpaceOnUse">
<stop stop-color="#4883B5"/>
<stop offset="1" stop-color="#352570"/>
</linearGradient>
</defs>
</svg>
